REM DIRINDEX 1\2\3,1\2\4,1\2\5,1\2\6
REM DIRNAME cjc157,folder01,folder02,folder03,folder04,folder05
TITLE ""
FILE "044 044.mp3" MP3
  TRACK 01 AUDIO
    TITLE "0:"
    INDEX 01 00:00:00
  TRACK 02 AUDIO
    TITLE "3:cjc157_1671"
    INDEX 01 00:00:13
  TRACK 03 AUDIO
    TITLE "0:"
    INDEX 01 00:01:30
  TRACK 04 AUDIO
    TITLE "4:cjc157_1672"
    INDEX 01 00:02:00
  TRACK 05 AUDIO
    TITLE "0:"
    INDEX 01 00:03:06
  TRACK 06 AUDIO
    TITLE "5:cjc157_1673"
    INDEX 01 00:03:49
  TRACK 07 AUDIO
    TITLE "0:"
    INDEX 01 00:05:18
  TRACK 08 AUDIO
    TITLE "5:cjc157_1674"
    INDEX 01 00:05:67
  TRACK 09 AUDIO
    TITLE "0:"
    INDEX 01 00:09:20
  TRACK 10 AUDIO
    TITLE "3:cjc157_1675"
    INDEX 01 00:09:63
  TRACK 11 AUDIO
    TITLE "0:"
    INDEX 01 00:11:13
  TRACK 12 AUDIO
    TITLE "4:cjc157_1676"
    INDEX 01 00:11:58
  TRACK 13 AUDIO
    TITLE "0:"
    INDEX 01 00:13:16
  TRACK 14 AUDIO
    TITLE "5:cjc157_1677"
    INDEX 01 00:13:57
  TRACK 15 AUDIO
    TITLE "0:"
    INDEX 01 00:16:48
  TRACK 16 AUDIO
    TITLE "5:cjc157_1678"
    INDEX 01 00:17:16
  TRACK 17 AUDIO
    TITLE "0:"
    INDEX 01 00:21:19
  TRACK 18 AUDIO
    TITLE "3:cjc157_1679"
    INDEX 01 00:21:66
  TRACK 19 AUDIO
    TITLE "0:"
    INDEX 01 00:23:18
  TRACK 20 AUDIO
    TITLE "4:cjc157_1680"
    INDEX 01 00:23:63
  TRACK 21 AUDIO
    TITLE "0:"
    INDEX 01 00:25:03
  TRACK 22 AUDIO
    TITLE "5:cjc157_1681"
    INDEX 01 00:25:50
  TRACK 23 AUDIO
    TITLE "0:"
    INDEX 01 00:27:39
  TRACK 24 AUDIO
    TITLE "5:cjc157_1682"
    INDEX 01 00:28:12
  TRACK 25 AUDIO
    TITLE "0:"
    INDEX 01 00:30:03
  TRACK 26 AUDIO
    TITLE "3:cjc157_1683"
    INDEX 01 00:30:50
  TRACK 27 AUDIO
    TITLE "0:"
    INDEX 01 00:32:00
  TRACK 28 AUDIO
    TITLE "4:cjc157_1684"
    INDEX 01 00:32:47
  TRACK 29 AUDIO
    TITLE "0:"
    INDEX 01 00:33:62
  TRACK 30 AUDIO
    TITLE "5:cjc157_1685"
    INDEX 01 00:34:38
  TRACK 31 AUDIO
    TITLE "0:"
    INDEX 01 00:36:15
  TRACK 32 AUDIO
    TITLE "5:cjc157_1686"
    INDEX 01 00:36:60
  TRACK 33 AUDIO
    TITLE "0:"
    INDEX 01 00:39:17
  TRACK 34 AUDIO
    TITLE "3:cjc157_1687"
    INDEX 01 00:39:66
  TRACK 35 AUDIO
    TITLE "0:"
    INDEX 01 00:41:28
  TRACK 36 AUDIO
    TITLE "4:cjc157_1688"
    INDEX 01 00:41:73
  TRACK 37 AUDIO
    TITLE "0:"
    INDEX 01 00:43:27
  TRACK 38 AUDIO
    TITLE "5:cjc157_1689"
    INDEX 01 00:43:70
  TRACK 39 AUDIO
    TITLE "0:"
    INDEX 01 00:46:56
  TRACK 40 AUDIO
    TITLE "3:cjc157_1690"
    INDEX 01 00:47:30
  TRACK 41 AUDIO
    TITLE "0:"
    INDEX 01 00:49:02
  TRACK 42 AUDIO
    TITLE "4:cjc157_1691"
    INDEX 01 00:49:51
  TRACK 43 AUDIO
    TITLE "0:"
    INDEX 01 00:50:60
  TRACK 44 AUDIO
    TITLE "5:cjc157_1692"
    INDEX 01 00:51:30
  TRACK 45 AUDIO
    TITLE "0:"
    INDEX 01 00:54:42
  TRACK 46 AUDIO
    TITLE "3:cjc157_1693"
    INDEX 01 00:55:12
  TRACK 47 AUDIO
    TITLE "0:"
    INDEX 01 00:56:45
  TRACK 48 AUDIO
    TITLE "4:cjc157_1694"
    INDEX 01 00:57:17
  TRACK 49 AUDIO
    TITLE "0:"
    INDEX 01 00:58:34
  TRACK 50 AUDIO
    TITLE "5:cjc157_1695"
    INDEX 01 00:59:04
  TRACK 51 AUDIO
    TITLE "0:"
    INDEX 01 01:01:68
  TRACK 52 AUDIO
    TITLE "3:cjc157_1696"
    INDEX 01 01:02:44
  TRACK 53 AUDIO
    TITLE "0:"
    INDEX 01 01:04:00
  TRACK 54 AUDIO
    TITLE "4:cjc157_1697"
    INDEX 01 01:04:43
  TRACK 55 AUDIO
    TITLE "0:"
    INDEX 01 01:05:69
  TRACK 56 AUDIO
    TITLE "5:cjc157_1698"
    INDEX 01 01:06:42
  TRACK 57 AUDIO
    TITLE "0:"
    INDEX 01 01:08:68
  TRACK 58 AUDIO
    TITLE "3:cjc157_1699"
    INDEX 01 01:09:36
  TRACK 59 AUDIO
    TITLE "0:"
    INDEX 01 01:10:71
  TRACK 60 AUDIO
    TITLE "4:cjc157_1700"
    INDEX 01 01:11:39
  TRACK 61 AUDIO
    TITLE "0:"
    INDEX 01 01:14:49
  TRACK 62 AUDIO
    TITLE "5:cjc157_1701"
    INDEX 01 01:15:23
  TRACK 63 AUDIO
    TITLE "0:"
    INDEX 01 01:17:28
  TRACK 64 AUDIO
    TITLE "5:cjc157_1702"
    INDEX 01 01:17:73
  TRACK 65 AUDIO
    TITLE "0:"
    INDEX 01 01:20:28
  TRACK 66 AUDIO
    TITLE "3:cjc157_1703"
    INDEX 01 01:20:73
  TRACK 67 AUDIO
    TITLE "0:"
    INDEX 01 01:22:42
  TRACK 68 AUDIO
    TITLE "4:cjc157_1704"
    INDEX 01 01:23:15
  TRACK 69 AUDIO
    TITLE "0:"
    INDEX 01 01:24:36
  TRACK 70 AUDIO
    TITLE "5:cjc157_1705"
    INDEX 01 01:25:04
  TRACK 71 AUDIO
    TITLE "0:"
    INDEX 01 01:27:34
  TRACK 72 AUDIO
    TITLE "5:cjc157_1706"
    INDEX 01 01:28:04
  TRACK 73 AUDIO
    TITLE "0:"
    INDEX 01 01:31:63
